<svg xmlns:dc="http://purl.org/dc/elements/1.1/" xmlns:cc="http://creativecommons.org/ns#" xmlns:rdf="http://www.w3.org/1999/02/22-rdf-syntax-ns#" xmlns:svg="http://www.w3.org/2000/svg" xmlns="http://www.w3.org/2000/svg" xmlns:sodipodi="http://sodipodi.sourceforge.net/DTD/sodipodi-0.dtd" xmlns:inkscape="http://www.inkscape.org/namespaces/inkscape" viewBox="0 0 16.933333 21.1666675" version="1.1" x="0px" y="0px"><g transform="translate(0,-280.06664)"><path d="m 9.5391494,281.27466 c -0.573246,0.57732 -0.928953,1.3715 -0.928953,2.2447 v 4.6659 l 3.2993806,-3.29935 c 0.620131,-0.62013 0.930646,-1.43621 0.930646,-2.25404 v 0 c 0,-0.81693 -0.309986,-1.63388 -0.929772,-2.25367 l -0.04591,-0.0468 h -0.06593 c -0.876591,0 -1.673648,0.35875 -2.2513116,0.93641 z m -4.516569,3.61106 3.299724,3.29954 v -4.6659 c 0,-1.754 -1.433909,-3.18791 -3.187911,-3.18791 h -0.06593 l -0.04604,0.0462 v 0 l -0.0074,0.007 c -0.614866,0.61828 -0.922497,1.43267 -0.922497,2.24705 v 0 c 0,0.81561 0.309643,1.63219 0.927735,2.25185 l 0.0027,0.003 z m -1.570329,3.50351 h 4.666111 l -3.299538,-3.29957 c -0.619919,-0.61994 -1.43555,-0.92977 -2.254038,-0.92977 v 0 c -0.816452,0 -1.63364397,0.31028 -2.25385397,0.93046 l -0.04641,0.0464 v 0.0654 c 0,1.75313 1.43459797,3.18773 3.18772697,3.18773 z m 1.366229,3.58777 3.299882,-3.29988 h -4.666111 c -1.753129,0 -3.18772597,1.43457 -3.18772597,3.1877 v 0.0655 l 0.04675,0.0467 c 0.619945,0.61998 1.43742797,0.93012 2.25366697,0.93012 v 0 c 0.816108,0 1.632533,-0.30932 2.251816,-0.92726 l 0.0026,-0.003 z m 3.503824,1.56999 v -4.66595 l -3.299539,3.2994 c -0.620157,0.62011 -0.930646,1.43621 -0.930646,2.25401 v 0 c 0,0.81693 0.309986,1.63389 0.929799,2.2537 l 0.04588,0.0467 h 0.06593 c 1.753262,0 3.187911,-1.4348 3.187911,-3.18788 z m 3.5874586,-1.36639 -3.2995666,-3.30007 v 4.66646 c 0,0.87675 0.358591,1.67399 0.93607,2.25181 v 0 c 0.5776636,0.57764 1.3747216,0.93642 2.2513126,0.93642 h 0.06593 l 0.04606,-0.0462 v 0 l 0.0074,-0.007 c 0.614865,-0.61831 0.92247,-1.4327 0.92247,-2.24708 v 0 c 0,-0.81542 -0.309457,-1.63219 -0.927762,-2.25182 l -0.0026,-0.003 z m 1.570327,-3.50348 H 8.8139534 l 3.2995916,3.29954 c 0.619971,0.61997 1.435469,0.9298 2.254011,0.9298 v 0 c 0.816451,0 1.633643,-0.31025 2.253853,-0.93046 l 0.04641,-0.0464 v -0.0655 c 0,-1.75313 -1.434571,-3.1877 -3.187727,-3.1877 z m 0.887466,-4.51739 c -0.814388,0 -1.628298,0.30758 -2.247397,0.92213 l -0.0069,0.008 -3.2997506,3.29972 H 13.48015 c 1.753155,0 3.187726,-1.43457 3.187726,-3.18772 0,-0.0839 0.01243,-0.0514 -0.05337,-0.1193 -0.61894,-0.61521 -1.433195,-0.92316 -2.246895,-0.92316 z" style="" fill="#000000" fill-rule="evenodd" stroke-width="0.26458335"/></g><text x="0" y="31.933334" fill="#000000" font-size="5px" font-weight="bold" font-family="'Helvetica Neue', Helvetica, Arial-Unicode, Arial, Sans-serif">Created by Alvida Biersack</text><text x="0" y="36.933334" fill="#000000" font-size="5px" font-weight="bold" font-family="'Helvetica Neue', Helvetica, Arial-Unicode, Arial, Sans-serif">from the Noun Project</text></svg>